#!OML:ASF H:\Terrain\Patient Classification 1\Takeo\Monday\TakeoMonday.ASF
:FULLY-SPECIFIED
:DEGREES
2480
root 10.0138 17.7632 0.24641 -6.29959 -1.24907 1.9273
lowerback 0.0650301 1.09408 1.30425
upperback 0.124911 1.45691 3.55394
thorax 0.0314343 0.728717 2.91454
lowerneck -11.9223 -8.31683 -2.26855
upperneck 17.115 -15.5289 21.0638
head 9.39566 -5.55196 5.65403
rclavicle -3.57812e-015 -2.54444e-014
rhumerus 50.6991 55.4596 -55.5475
rradius 126.512
rwrist -77.4544
rhand -9.83656 9.79413
rfingers 7.12502
rthumb 16.141 -19.5538
lclavicle -3.57812e-015 -2.54444e-014
lhumerus -36.8731 14.3134 88.3417
lradius 28.839
lwrist 38.0503
lhand -22.6726 26.6391
lfingers 7.12502
lthumb 3.75929 56.5857
rfemur 8.70572 0.146327 17.3119
rtibia 16.1402
rfoot -15.8423 -19.0973
rtoes -0.917999
lfemur 6.32248 -2.55541 -23.2137
ltibia 17.4421
lfoot -13.6568 16.2363
ltoes -6.3757
2481
root 10.0113 17.7639 0.248926 -6.34528 -1.32164 1.6331
lowerback 0.0394743 1.11471 1.63885
upperback 0.203822 1.48006 3.49121
thorax 0.135876 0.740127 2.66342
lowerneck -11.5382 -8.27708 -2.2399
upperneck 16.9524 -15.3698 20.8564
head 9.21673 -5.53528 5.60669
rclavicle 1.90833e-014 -1.27222e-014
rhumerus 48.0284 55.1278 -57.175
rradius 126.828
rwrist -77.5242
rhand -10.1685 9.40398
rfingers 7.12502
rthumb 15.8214 -19.9695
lclavicle 1.90833e-014 -1.27222e-014
lhumerus -36.7208 13.8448 88.3847
lradius 29.0148
lwrist 38.1584
lhand -22.537 26.4453
lfingers 7.12502
lthumb 3.89024 56.3895
rfemur 8.80899 0.189135 17.6666
rtibia 16.0139
rfoot -15.7492 -19.215
rtoes -1.12641
lfemur 6.36653 -2.47322 -22.8653
ltibia 17.492
lfoot -13.7547 16.1711
ltoes -6.14505
2482
root 10.0101 17.7686 0.24549 -6.30669 -1.31181 1.69706
lowerback 0.0508961 1.00223 1.54844
upperback 0.268623 1.32816 3.38729
thorax 0.201526 0.663859 2.60754
lowerneck -11.4649 -8.15417 -2.25796
upperneck 17.0043 -15.1284 20.5575
head 9.15628 -5.45519 5.54172
rclavicle 1.39149e-015 3.33958e-014
rhumerus 45.9875 54.9312 -58.2325
rradius 127.048
rwrist -77.0278
rhand -10.5142 9.95783
rfingers 7.12502
rthumb 15.4885 -19.4418
lclavicle 1.39149e-015 3.33958e-014
lhumerus -36.7712 14.0056 88.2776
lradius 29.5333
lwrist 38.2636
lhand -22.1981 26.2897
lfingers 7.12502
lthumb 4.21752 56.2277
rfemur 8.69257 0.229552 17.6128
rtibia 16.0935
rfoot -15.7951 -19.2676
rtoes -1.07619
lfemur 6.36384 -2.54762 -22.938
ltibia 17.3816
lfoot -13.8924 16.1643
ltoes -6.20488
2483
root 10.0114 17.7689 0.244336 -6.32788 -1.24342 1.95125
lowerback 0.181681 0.831447 1.15122
upperback 0.333251 1.10293 3.36705
thorax 0.194975 0.55028 2.8083
lowerneck -11.8548 -8.05763 -2.46383
upperneck 17.4502 -14.9682 20.1266
head 9.33384 -5.37748 5.44407
rclavicle 1.2921e-014 -1.59028e-014
rhumerus 44.1379 55.2268 -59.0715
rradius 127.191
rwrist -76.1065
rhand -10.9293 10.5633
rfingers 7.12502
rthumb 15.0886 -18.8668
lclavicle 1.2921e-014 -1.59028e-014
lhumerus -36.6767 14.5481 88.2314
lradius 29.7974
lwrist 38.3761
lhand -22.3323 25.8955
lfingers 7.12502
lthumb 4.08789 55.836
rfemur 8.6085 0.270611 17.3257
rtibia 16.2804
rfoot -15.8859 -19.3057
rtoes -0.535901
lfemur 6.47866 -2.69601 -23.2567
ltibia 17.1641
lfoot -13.9559 16.2574
ltoes -6.33018
2484
root 10.016 17.767 0.24546 -6.34954 -1.24048 2.12589
lowerback 0.289113 0.871989 1.03807
upperback 0.281043 1.16233 3.14845
thorax 0.0810632 0.580422 2.64394
lowerneck -12.0294 -8.21483 -2.29098
upperneck 17.8686 -15.1816 19.5128
head 9.46475 -5.47909 5.16888
rclavicle -2.27608e-014 -3.18055e-014
rhumerus 41.1359 55.2717 -61.012
rradius 127.371
rwrist -75.0751
rhand -11.0311 10.2
rfingers 7.12502
rthumb 14.9905 -19.2374
lclavicle -2.27608e-014 -3.18055e-014
lhumerus -36.6178 14.2025 88.1472
lradius 29.8308
lwrist 38.618
lhand -22.6927 25.31
lfingers 7.12502
lthumb 3.73981 55.257
rfemur 8.50811 0.208532 17.0843
rtibia 16.5498
rfoot -16.105 -19.2481
rtoes -1.06215
lfemur 6.64791 -2.75487 -23.4918
ltibia 16.8711
lfoot -13.8419 16.3798
ltoes -6.27328
